<?xml version="1.0" standalone="no"?>
<!DOCTYPE svg PUBLIC "-//W3C//DTD SVG 20010904//EN"
 "http://www.w3.org/TR/2001/REC-SVG-20010904/DTD/svg10.dtd">
<svg version="1.0" xmlns="http://www.w3.org/2000/svg"
 width="449.000000pt" height="409.000000pt" viewBox="0 0 449.000000 409.000000"
 preserveAspectRatio="xMidYMid meet">

<g transform="translate(0.000000,409.000000) scale(0.100000,-0.100000)"
fill="#000000" stroke="none">
<path d="M2156 4070 c-32 -10 -64 -24 -69 -29 -6 -6 -26 -11 -44 -11 -17 0
-36 -6 -40 -14 -14 -24 -77 -55 -154 -76 -155 -41 -169 -48 -256 -137 -84 -85
-104 -116 -122 -189 -7 -26 -23 -51 -46 -70 -19 -16 -35 -33 -35 -38 0 -5 -24
-36 -54 -70 -122 -139 -161 -247 -169 -462 -4 -107 -2 -155 9 -195 21 -80 29
-201 14 -228 -10 -20 -9 -27 12 -50 13 -14 41 -52 62 -85 l38 -59 -8 -91 c-10
-105 -12 -87 20 -201 14 -49 32 -112 39 -139 19 -69 37 -72 25 -4 -5 29 -17
78 -25 108 -21 70 -21 199 0 272 9 32 19 101 22 155 9 129 50 322 93 434 6 16
7 43 1 72 -5 31 -5 57 2 75 6 15 12 36 14 47 4 23 23 78 39 114 6 13 30 40 54
59 44 36 49 36 66 -3 3 -6 8 -5 14 3 11 16 89 25 97 12 4 -6 15 -10 25 -10 11
0 42 -14 69 -31 50 -30 51 -30 138 -22 49 5 109 4 136 -1 55 -10 132 7 146 32
13 22 203 24 245 1 17 -9 59 -19 93 -22 34 -4 78 -16 98 -27 19 -11 44 -20 55
-20 11 0 25 -9 32 -20 7 -11 18 -20 23 -20 11 0 55 -48 107 -115 12 -16 33
-41 46 -55 27 -29 55 -115 72 -220 6 -41 20 -106 30 -145 10 -38 22 -104 25
-145 4 -41 16 -113 27 -160 25 -107 25 -205 -2 -314 -12 -48 -19 -92 -17 -99
5 -13 6 -12 31 69 8 27 18 70 21 95 10 69 25 108 47 123 16 11 18 18 9 34 -6
12 -11 30 -11 42 0 11 -7 23 -15 26 -11 5 -15 23 -15 73 0 66 1 68 49 125 37
43 49 66 49 90 0 62 15 171 26 185 7 9 11 75 10 195 -1 166 -3 188 -28 265
-14 46 -44 119 -65 162 -22 43 -50 111 -61 151 -24 80 -104 210 -180 292 -50
54 -183 157 -239 187 -145 74 -207 90 -371 94 -123 4 -154 2 -204 -15z"/>
<path d="M1814 2669 c-10 -4 -34 -8 -53 -8 -39 -1 -72 -26 -64 -47 3 -8 14
-14 25 -14 14 0 18 -5 14 -15 -4 -12 3 -15 32 -15 21 0 62 -7 92 -15 30 -9 62
-17 70 -18 8 -1 26 -8 39 -16 17 -10 21 -10 16 -1 -6 10 -1 12 19 8 18 -4 29
-1 33 8 3 8 9 11 15 8 5 -3 4 -11 -3 -20 -11 -14 -9 -16 38 -29 18 -6 21 16 7
45 -14 26 -69 65 -82 56 -4 -2 -18 11 -31 30 -13 19 -31 34 -40 35 -9 0 -37 4
-62 8 -25 4 -54 4 -65 0z"/>
<path d="M2551 2664 c-68 -16 -157 -60 -166 -82 -3 -9 3 -24 14 -36 16 -16 23
-17 35 -7 11 9 20 9 34 2 11 -6 21 -9 23 -6 2 2 26 6 52 9 53 6 70 13 62 25
-2 5 7 6 21 3 18 -3 33 3 52 21 15 13 37 28 50 32 13 4 21 12 19 18 -5 18 -46
21 -64 5 -12 -9 -15 -10 -9 0 14 24 -54 33 -123 16z"/>
<path d="M1576 2651 c-4 -7 -5 -15 -2 -18 9 -9 19 4 14 18 -4 11 -6 11 -12 0z"/>
<path d="M1678 2573 c7 -3 16 -2 19 1 4 3 -2 6 -13 5 -11 0 -14 -3 -6 -6z"/>
<path d="M1697 2460 c-45 -17 -127 -84 -116 -94 10 -11 109 7 109 19 0 15 32
45 48 45 7 0 12 -11 12 -23 0 -30 25 -53 67 -62 26 -5 37 -2 55 17 13 13 28
32 33 42 9 17 12 16 38 -8 15 -14 27 -30 27 -36 0 -5 11 -10 25 -10 32 0 32
14 0 56 -55 72 -190 96 -298 54z"/>
<path d="M2634 2474 c-5 -1 -26 -5 -47 -9 -58 -10 -164 -115 -116 -115 6 0 27
16 46 35 19 19 39 35 44 35 5 0 15 -13 24 -29 17 -34 43 -45 85 -36 33 7 45
19 54 58 7 31 23 32 40 2 19 -34 30 -40 79 -43 63 -3 59 12 -15 56 -38 23 -74
35 -120 40 -36 5 -69 7 -74 6z"/>
<path d="M1161 2388 c0 -46 3 -77 6 -70 2 6 16 12 29 12 13 0 24 3 25 8 0 4 2
20 4 37 5 33 -14 69 -45 85 -19 10 -20 8 -19 -72z"/>
<path d="M3292 2447 c-12 -13 -22 -28 -22 -34 0 -12 40 -49 40 -37 1 5 8 -4
17 -21 15 -26 18 -27 21 -10 5 24 -17 125 -27 125 -4 0 -17 -10 -29 -23z"/>
<path d="M2047 1849 c-9 -6 -17 -16 -17 -24 0 -7 -7 -15 -15 -17 -14 -3 -14
-6 1 -26 14 -21 24 -23 88 -23 39 0 95 0 124 0 28 0 66 1 82 1 17 0 46 0 66
-2 28 -1 41 4 55 21 19 23 19 23 -8 45 -42 32 -100 27 -151 -13 -46 -37 -64
-36 -115 8 -36 32 -84 44 -110 30z"/>
<path d="M3097 1854 c-3 -6 -9 -38 -13 -70 l-6 -59 20 36 c15 26 18 44 13 70
-4 19 -10 29 -14 23z"/>
<path d="M1380 1791 c0 -5 5 -13 10 -16 6 -3 10 -2 10 4 0 5 -4 13 -10 16 -5
3 -10 2 -10 -4z"/>
<path d="M3068 1694 c-5 -4 -8 -21 -7 -38 0 -30 0 -30 10 -7 11 27 8 57 -3 45z"/>
<path d="M2056 1543 c-10 -3 -39 -16 -63 -29 -35 -18 -54 -22 -88 -18 -25 4
-45 2 -49 -4 -8 -13 6 -22 64 -43 39 -13 52 -13 100 -2 37 8 81 10 135 6 44
-4 85 -6 90 -4 6 1 71 5 145 7 74 2 157 10 183 17 l49 13 -20 24 c-18 22 -22
23 -46 12 -37 -16 -89 -15 -134 4 -26 11 -64 15 -127 13 -49 -1 -119 1 -155 4
-36 3 -73 3 -84 0z"/>
<path d="M2171 1339 c-49 -22 -47 -35 5 -37 20 -1 42 -6 48 -11 7 -6 17 -6 26
-1 8 6 27 10 42 10 38 0 42 15 11 35 -38 25 -83 26 -132 4z"/>
<path d="M2082 958 c5 -15 48 -18 48 -3 0 6 -11 11 -26 13 -18 3 -25 0 -22
-10z"/>
<path d="M1373 858 c-33 -35 -77 -79 -99 -98 -78 -70 -223 -145 -307 -161 -59
-10 -146 -31 -198 -47 -63 -20 -153 -42 -317 -78 -167 -36 -187 -43 -352 -123
l-95 -46 -3 -152 -3 -153 687 0 687 0 -7 128 c-5 91 -2 159 8 237 9 61 23 175
31 255 14 125 30 214 51 283 11 35 -23 16 -83 -45z"/>
<path d="M2985 645 c0 -201 -3 -252 -27 -405 -15 -96 -30 -190 -32 -208 l-5
-32 785 0 784 0 0 95 0 94 -77 37 c-43 20 -105 49 -138 65 -33 15 -79 34 -102
41 -24 7 -43 16 -43 20 0 5 -9 8 -19 8 -28 0 -143 55 -134 64 4 4 0 4 -9 1 -8
-3 -45 8 -80 24 -36 17 -73 31 -83 31 -10 0 -26 6 -34 13 -9 7 -52 21 -96 31
-44 9 -89 21 -100 26 -11 5 -60 18 -110 30 -49 11 -101 26 -115 32 -82 35
-151 79 -201 128 -33 32 -68 60 -74 60 -3 0 -14 8 -25 18 -10 9 -30 26 -42 37
l-23 21 0 -231z"/>
<path d="M2216 339 c-11 -7 -38 -9 -66 -5 l-47 6 -73 -67 c-40 -37 -95 -96
-122 -132 -40 -54 -48 -71 -46 -101 l3 -35 348 -3 348 -2 -44 57 c-41 53 -270
293 -278 293 -2 0 -12 -5 -23 -11z"/>
</g>
</svg>
